/* XPM */
static char * mini_trx_xpm[] = {
"40 16 9 1",
" 	c None",
".	c #6D5858",
"+	c #443835",
"@	c #211E1E",
"#	c #C95722",
"$	c #32D3D3",
"%	c #818191",
"&	c #443333",
"*	c #161413",
"........................................",
".++.++.@@@@@@@@@@@@@@@@@@@@@@@@@@.@@.@@.",
".......@@@@@@@@@@##@@@@##@@@@@##@.@@.@@.",
".+++++.@$$$##@%$@$$$$$$$$@@@@@@@@.......",
".+@@@+.@#@@@@@%$@$$$$$$$$@@%%%%%@.&&.&&.",
".+@@@+.@@@@@@@@@@@@@@@@@@@@@@@@@@.......",
".+++++.@@@@@@@@@@@@@@@@@@@@@@@@@@.@@.@@.",
"........................................",
"............+++++..+***+..+++++.........",
".+++.%%.%%..+%.%+.+***%%+.+%.%+...%%.%%.",
".....%%.%%..+...+.****%%*.+...+...%%.%%.",
"............+%.%+.*******.+%.%+.........",
".%%%.%%.%%..+...+.*******.+...+...%%.%%.",
".%+%.%%.%%..+%.%+.+*****+.+%.%+...%%.%%.",
".%%%........+++++..+***+..+++++.........",
"........................................"};
