/* XPM */
static char * xlog_xpm[] = {
"20 20 14 1",
" 	c None",
".	c #FFC000",
"+	c #262018",
"@	c #FDC100",
"#	c #FCBF00",
"$	c #FFC200",
"%	c #FEC100",
"&	c #FFC100",
"*	c #FEBF00",
"=	c #71580F",
"-	c #B98C0A",
";	c #FABE01",
">	c #FCBD00",
",	c #FFBF00",
"         ..         ",
"        .++.        ",
"        .++.        ",
"       .++++.       ",
"       .+..+.       ",
"      .++@#++.      ",
"      .+.$$.+.      ",
"     .++%$&*++.     ",
"     .+.&&...+.     ",
"    .++=&&..=++.    ",
"    .++=-..-=++.    ",
"   .+++=-..-=+++.   ",
"   .+.+=-++-=+.+.   ",
"  .++;==-++-==>++.  ",
"  .+.$==.++.==..+.  ",
" .++$....++.....++. ",
" .+.$$&..++.&.,&.+. ",
".++..............++.",
".++++++++++++++++++.",
"...................."};
