/* XPM */
static char * mini_clock_xpm[] = {
"18 20 26 1",
" 	c None",
".	c #000000",
"+	c #030303",
"@	c #797979",
"#	c #CDCDCD",
"$	c #F9F9F9",
"%	c #393939",
"&	c #DADADA",
"*	c #FFFFFF",
"=	c #2B2B2B",
"-	c #BBBBBB",
";	c #BEBEBE",
">	c #4E4E4E",
",	c #AAAAAA",
"'	c #A4A4A4",
")	c #C7C7C7",
"!	c #555555",
"~	c #E3E3E3",
"{	c #1D1D1D",
"]	c #5E5E5E",
"^	c #DEDEDE",
"/	c #FBFBFB",
"(	c #131313",
"_	c #424242",
":	c #F0F0F0",
"<	c #0E0E0E",
"      ......      ",
"    ..........    ",
"   ..+@#$$#@+..   ",
"  ..%&******&%..  ",
" ..=*********-=.. ",
" ..*********-%;.. ",
" .>********,.%%>. ",
"..'*)!****~{.]*'..",
"..^*%.{~*~{.!**^..",
"../*,...,!.!***/..",
"../**~{.(.!*****..",
"..^****!_!*****^..",
"..'************'..",
" .>************>. ",
" ..;***********.. ",
" ..=*********:<.. ",
"  ..%&******&%..  ",
"   ..+@#$*#@+..   ",
"    ..........    ",
"      ......      "};
