/* XPM */
static char * s_xpm[] = {
"18 20 26 1",
" 	c None",
".	c #000000",
"+	c #030303",
"@	c #797979",
"#	c #CDCDCD",
"$	c #F9F9F9",
"%	c #393939",
"&	c #DADADA",
"*	c #FFFFFF",
"=	c #2B2B2B",
"-	c #F0F0F0",
";	c #727272",
">	c #C7C7C7",
",	c #BEBEBE",
"'	c #4E4E4E",
")	c #555555",
"!	c #A4A4A4",
"~	c #DEDEDE",
"{	c #FBFBFB",
"]	c #8E8E8E",
"^	c #AAAAAA",
"/	c #1D1D1D",
"(	c #E3E3E3",
"_	c #131313",
":	c #535353",
"<	c #0E0E0E",
"      ......      ",
"    ..........    ",
"   ..+@#$$#@+..   ",
"  ..%&******&%..  ",
" ..=-.*.;*.%>-=.. ",
" ..;*;.*.*.;>.,.. ",
" .'.;*.*;*).;.*'. ",
"..!*;*****..>!*!..",
"..~******>;.***~..",
"..{******].)***{..",
"..{******%.^***{..",
"..~******..****~..",
"..!**>;.....;>*!..",
" .'*>.........^'. ",
" ..,%.)*/.(*>_... ",
" ..=:)**.^***-<.. ",
"  ..%&******&%..  ",
"   ..+@#$$#@+..   ",
"    ..........    ",
"      ......      "};
