/* XPM */
static char * s_xpm[] = {
"18 20 11 1",
" 	c None",
".	c #FFFFFF",
"+	c #0000FF",
"@	c #3838FF",
"#	c #5555FF",
"$	c #1C1CFF",
"%	c #AAAAFF",
"&	c #8D8DFF",
"*	c #C6C6FF",
"=	c #E2E2FF",
"-	c #7171FF",
"..................",
"..++++++++++++++..",
"..++++++++++++++..",
"..++++++++++++++..",
"..++++++++++++++..",
"..+++++@##$+++++..",
"..++++%....&++++..",
"..+++#.&+$*.@+++..",
"..+++#.&++$#$+++..",
"..++++=..%&@++++..",
"..+++++#%*..@+++..",
"..+++@#$++$.%+++..",
"..+++-.%++#.&+++..",
"..++++*....*$+++..",
"..+++++@##@+++++..",
"..++++++++++++++..",
"..++++++++++++++..",
"..................",
"..................",
".................."};
