/* XPM */
static char * s1_xpm[] = {
"144 18 9 1",
" 	c None",
".	c #FFFFFF",
"+	c #0000FF",
"@	c #C6C6FF",
"#	c #AAAAFF",
"$	c #3838FF",
"%	c #E2E2FF",
"&	c #1C1CFF",
"*	c #5555FF",
"................................................................................................................................................",
"..++++++++++++..................................................................................................................................",
"..++++++++++++..................................................................................................................................",
"..++++++++++++..................................................................................................................................",
"..++++++++++++..................................................................................................................................",
"..++++++++++++..................................................................................................................................",
"..+++++@#+++++..................................................................................................................................",
"..++$#%.#+++++..................................................................................................................................",
"..++&**.#+++++..................................................................................................................................",
"..+++++.#+++++..................................................................................................................................",
"..+++++.#+++++..................................................................................................................................",
"..+++++.#+++++..................................................................................................................................",
"..+++++.#+++++..................................................................................................................................",
"..+++++.#+++++..................................................................................................................................",
"..+++++*$+++++..................................................................................................................................",
"..++++++++++++..................................................................................................................................",
"..++++++++++++..................................................................................................................................",
"................................................................................................................................................"};
