/* XPM */
static char * s8_xpm[] = {
"144 18 11 1",
" 	c None",
".	c #FFFFFF",
"+	c #0000FF",
"@	c #C6C6FF",
"#	c #AAAAFF",
"$	c #8D8DFF",
"%	c #E2E2FF",
"&	c #5555FF",
"*	c #1C1CFF",
"=	c #3838FF",
"-	c #7171FF",
"................................................................................................................................................",
"..++++++++++++....++++++++++++....++++++++++++....++++++++++++....++++++++++++....++++++++++++....++++++++++++....++++++++++++..................",
"..++++++++++++....++++++++++++....++++++++++++....++++++++++++....++++++++++++....++++++++++++....++++++++++++....++++++++++++..................",
"..++++++++++++....++++++++++++....++++++++++++....++++++++++++....++++++++++++....++++++++++++....++++++++++++....++++++++++++..................",
"..++++++++++++....++++++++++++....++++++++++++....++++++++++++....++++++++++++....++++++++++++....++++++++++++....++++++++++++..................",
"..++++++++++++....++++++++++++....++++++++++++....++++++++++++....++++++++++++....++++++++++++....++++++++++++....++++++++++++..................",
"..+++++@#+++++....++++$..%&+++....++++$..%&+++....+++++*%.&+++....++++#....+++....++++&%.%&+++....+++#.....&++....+++*$..%&+++..................",
"..++=#%.#+++++....+++$.#&%%+++....+++-.-&%%+++....+++++$%.&+++....++++.$&&&+++....+++*.#&$#+++....+++=&&&%%*++....+++$.-&%%+++..................",
"..++*&&.#+++++....+++-#++#.+++....+++-#++@%+++....++++=%-.&+++....++++.&&=++++....+++-.*&=++++....++++++&.&+++....+++$.*+@%+++..................",
"..+++++.#+++++....++++++*%%+++....+++++=@%*+++....++++@-&.&+++....+++&....#+++....+++#.%..#+++....++++++%#++++....+++*....&+++..................",
"..+++++.#+++++....+++++*%%*+++....+++++=#.$+++....+++-@+&.&+++....+++=#*+#.=++....+++#.&+#.=++....+++++-.*++++....+++-.#&%%+++..................",
"..+++++.#+++++....++++&.@*++++....+++++++#.+++....+++#.....&++....+++++++&.&++....+++#.++&.&++....+++++%@+++++....+++#.++&.&++..................",
"..+++++.#+++++....+++*.%++++++....+++$.*+@.+++....+++=&&$.$*++....+++#.*+#.=++....+++&.&+#.=++....++++*.$+++++....+++#.&+#.=++..................",
"..+++++.#+++++....+++$.....+++....+++*%...&+++....++++++&.&+++....+++=%...$+++....++++#...#+++....++++&.&+++++....+++*%...#+++..................",
"..+++++&=+++++....+++=&&&&&+++....+++++&&*++++....++++++*&*+++....+++++&&*++++....+++++=&*++++....++++*&*+++++....+++++&&=++++..................",
"..++++++++++++....++++++++++++....++++++++++++....++++++++++++....++++++++++++....++++++++++++....++++++++++++....++++++++++++..................",
"..++++++++++++....++++++++++++....++++++++++++....++++++++++++....++++++++++++....++++++++++++....++++++++++++....++++++++++++..................",
"................................................................................................................................................"};
