/* XPM */
static char * xlog_xpm[] = {
"48 48 644 2",
"  	c None",
". 	c #FEBF07",
"+ 	c #FEBF06",
"@ 	c #FBBD02",
"# 	c #A77F11",
"$ 	c #B78A0F",
"% 	c #FEC103",
"& 	c #FEC10A",
"* 	c #8E6D14",
"= 	c #221D1C",
"- 	c #211C1B",
"; 	c #B3880D",
"> 	c #FDC110",
", 	c #ECB205",
"' 	c #2D251D",
") 	c #1F1B1A",
"! 	c #1F1C1B",
"~ 	c #43361B",
"{ 	c #FBBE04",
"] 	c #FFC005",
"^ 	c #896812",
"/ 	c #1E1A19",
"( 	c #1E1B1A",
"_ 	c #1F1C1C",
": 	c #AE850E",
"< 	c #FFC204",
"[ 	c #EBB005",
"} 	c #2B241C",
"| 	c #1D1B1A",
"1 	c #1E1B1B",
"2 	c #1E1C1A",
"3 	c #41341B",
"4 	c #FABD04",
"5 	c #FEC00C",
"6 	c #886713",
"7 	c #1F1C1A",
"8 	c #1C1919",
"9 	c #1E1B19",
"0 	c #AA800F",
"a 	c #FEC110",
"b 	c #EBB105",
"c 	c #2B231D",
"d 	c #1D1A19",
"e 	c #7B5E10",
"f 	c #564515",
"g 	c #1C1A18",
"h 	c #3F331B",
"i 	c #FABC04",
"j 	c #FEC007",
"k 	c #866713",
"l 	c #26211B",
"m 	c #E7AE03",
"n 	c #C89807",
"o 	c #1E1B18",
"p 	c #A57D0F",
"q 	c #1E1C1B",
"r 	c #7F6210",
"s 	c #FFC100",
"t 	c #FFC000",
"u 	c #594613",
"v 	c #1D1A18",
"w 	c #3C311A",
"x 	c #F8BA03",
"y 	c #856614",
"z 	c #201D1D",
"A 	c #27211A",
"B 	c #E7AF03",
"C 	c #CB9A07",
"D 	c #201C1A",
"E 	c #1D1918",
"F 	c #A37C0E",
"G 	c #FEC10F",
"H 	c #E8AE05",
"I 	c #7E6110",
"J 	c #FFC200",
"K 	c #5E4913",
"L 	c #1E1A18",
"M 	c #3A2F1A",
"N 	c #F7BA04",
"O 	c #FFC007",
"P 	c #826413",
"Q 	c #26211A",
"R 	c #E8AF03",
"S 	c #CE9C06",
"T 	c #201B17",
"U 	c #201D1B",
"V 	c #A07911",
"W 	c #FFC008",
"X 	c #E8AF05",
"Y 	c #282119",
"Z 	c #80630F",
"` 	c #604A11",
" .	c #1E1B17",
"..	c #1F1B19",
"+.	c #372D1A",
"@.	c #F6B904",
"#.	c #FEC10C",
"$.	c #7D6013",
"%.	c #28221A",
"&.	c #E9B003",
"*.	c #D19D05",
"=.	c #211C18",
"-.	c #1F1A19",
";.	c #9C7610",
">.	c #E6AE05",
",.	c #836510",
"'.	c #FFC300",
").	c #654E12",
"!.	c #1F1B18",
"~.	c #362C1B",
"{.	c #F4B805",
"].	c #7E6114",
"^.	c #2B241A",
"/.	c #EAB103",
"(.	c #D6A105",
"_.	c #221C18",
":.	c #987411",
"<.	c #FEC109",
"[.	c #E5AC05",
"}.	c #211D1B",
"|.	c #876810",
"1.	c #FFC201",
"2.	c #6A5211",
"3.	c #1F1D1B",
"4.	c #332A1C",
"5.	c #F2B605",
"6.	c #FEC00A",
"7.	c #7C6014",
"8.	c #1F1C19",
"9.	c #2C2519",
"0.	c #EBB203",
"a.	c #FFC001",
"b.	c #D9A305",
"c.	c #241E18",
"d.	c #937013",
"e.	c #FEC00D",
"f.	c #E3AC06",
"g.	c #26201A",
"h.	c #1D1916",
"i.	c #8A6A0F",
"j.	c #6F5510",
"k.	c #211C1A",
"l.	c #31281C",
"m.	c #EFB405",
"n.	c #FFC107",
"o.	c #795D14",
"p.	c #1D1A17",
"q.	c #2C2518",
"r.	c #EEB402",
"s.	c #DCA604",
"t.	c #231D18",
"u.	c #8E6C12",
"v.	c #FFC006",
"w.	c #E0A907",
"x.	c #8C6B0D",
"y.	c #FFC101",
"z.	c #FFBF00",
"A.	c #74590F",
"B.	c #2D241B",
"C.	c #EDB105",
"D.	c #755A15",
"E.	c #2D2516",
"F.	c #CE9A09",
"G.	c #6E5417",
"H.	c #F9BB02",
"I.	c #F3B703",
"J.	c #725617",
"K.	c #D49E06",
"L.	c #262018",
"M.	c #FEC10E",
"N.	c #DDA707",
"O.	c #241F1B",
"P.	c #8E6B0C",
"Q.	c #554217",
"R.	c #211C19",
"S.	c #806013",
"T.	c #211B18",
"U.	c #785B13",
"V.	c #7B5E0F",
"W.	c #6F5515",
"X.	c #2E2615",
"Y.	c #AB800D",
"Z.	c #1E1A16",
"`.	c #362C15",
" +	c #EFB302",
".+	c #C5940C",
"++	c #FEBF00",
"@+	c #CE9A0A",
"#+	c #DCA504",
"$+	c #282016",
"%+	c #BF900A",
"&+	c #292219",
"*+	c #806113",
"=+	c #D8A408",
"-+	c #221D1A",
";+	c #946F0B",
">+	c #584415",
",+	c #A57C0A",
"'+	c #BF8F0B",
")+	c #231C1A",
"!+	c #AA810E",
"~+	c #967111",
"{+	c #292118",
"]+	c #DBA307",
"^+	c #85640D",
"/+	c #201B18",
"(+	c #7C5E14",
"_+	c #826310",
":+	c #27211B",
"<+	c #E4AB06",
"[+	c #FEC108",
"}+	c #685116",
"|+	c #1E1A17",
"1+	c #312815",
"2+	c #E3AA05",
"3+	c #221D18",
"4+	c #292216",
"5+	c #F6B701",
"6+	c #4E3C17",
"7+	c #1F1A16",
"8+	c #CA9806",
"9+	c #F0B406",
"0+	c #F2B603",
"a+	c #AD8209",
"b+	c #6C5214",
"c+	c #E1A804",
"d+	c #211C17",
"e+	c #352B19",
"f+	c #E8AD03",
"g+	c #2C2419",
"h+	c #D29F09",
"i+	c #99740A",
"j+	c #C09009",
"k+	c #5F4810",
"l+	c #DFA706",
"m+	c #1F1A17",
"n+	c #5C4710",
"o+	c #E9AF05",
"p+	c #392C1B",
"q+	c #CF9D09",
"r+	c #BF900B",
"s+	c #43341A",
"t+	c #F6B702",
"u+	c #413213",
"v+	c #262017",
"w+	c #F5B702",
"x+	c #453614",
"y+	c #DEA506",
"z+	c #8A680E",
"A+	c #26211C",
"B+	c #DFA807",
"C+	c #FEC105",
"D+	c #624D17",
"E+	c #362D16",
"F+	c #F6BA01",
"G+	c #A27B0C",
"H+	c #1D1915",
"I+	c #84640D",
"J+	c #B4870A",
"K+	c #9A740A",
"L+	c #A0780E",
"M+	c #1F1B17",
"N+	c #B0840A",
"O+	c #D5A009",
"P+	c #DEA707",
"Q+	c #98720D",
"R+	c #B98A0A",
"S+	c #80610D",
"T+	c #CF9B07",
"U+	c #6C520F",
"V+	c #1E1916",
"W+	c #BE8E08",
"X+	c #EEB202",
"Y+	c #2E2518",
"Z+	c #745916",
"`+	c #CD9C0A",
" @	c #9E790B",
".@	c #98730C",
"+@	c #926E0B",
"@@	c #A57D09",
"#@	c #1C1815",
"$@	c #AE8309",
"%@	c #82630E",
"&@	c #E7AC03",
"*@	c #463719",
"=@	c #5E4815",
"-@	c #D19C06",
";@	c #9B750D",
">@	c #99730B",
",@	c #BC8C08",
"'@	c #7D5F0E",
")@	c #B08509",
"!@	c #906D0D",
"~@	c #231E1B",
"{@	c #DBA507",
"]@	c #FEC006",
"^@	c #5E4A18",
"/@	c #201C19",
"(@	c #372C15",
"_@	c #F7BA01",
":@	c #9F790A",
"<@	c #89670D",
"[@	c #B08408",
"}@	c #9E770C",
"|@	c #98730B",
"1@	c #BB8D0B",
"2@	c #BE8F07",
"3@	c #CA9706",
"4@	c #A67D0E",
"5@	c #89670F",
"6@	c #1E1915",
"7@	c #C79606",
"8@	c #755910",
"9@	c #B58808",
"0@	c #F1B402",
"a@	c #322817",
"b@	c #1D1B18",
"c@	c #6C5315",
"d@	c #FEC00B",
"e@	c #C8980A",
"f@	c #221E1B",
"g@	c #1F1A18",
"h@	c #A37B0A",
"i@	c #BA8E08",
"j@	c #684F12",
"k@	c #D9A204",
"l@	c #1D1814",
"m@	c #654E13",
"n@	c #E1A903",
"o@	c #282117",
"p@	c #BD8D0D",
"q@	c #C7940B",
"r@	c #A27A0D",
"s@	c #2D2416",
"t@	c #EEB102",
"u@	c #524016",
"v@	c #201A15",
"w@	c #ECB102",
"x@	c #564213",
"y@	c #CF9C06",
"z@	c #95720C",
"A@	c #231E1C",
"B@	c #D7A109",
"C@	c #FEC005",
"D@	c #5A4619",
"E@	c #3B2E14",
"F@	c #F9BD01",
"G@	c #312818",
"H@	c #FABB01",
"I@	c #413312",
"J@	c #D9A408",
"K@	c #E1A904",
"L@	c #F4B602",
"M@	c #272019",
"N@	c #382C19",
"O@	c #FEBD00",
"P@	c #DBA405",
"Q@	c #C8960B",
"R@	c #524011",
"S@	c #F3B702",
"T@	c #241E16",
"U@	c #F5B801",
"V@	c #F4B702",
"W@	c #352B17",
"X@	c #664F18",
"Y@	c #FEC20C",
"Z@	c #C5960B",
"`@	c #A67F0A",
" #	c #4B3B13",
".#	c #201C18",
"+#	c #B5880C",
"@#	c #AD8208",
"##	c #9C750E",
"$#	c #C1910A",
"%#	c #D9A307",
"&#	c #7F6011",
"*#	c #1F1A15",
"=#	c #BE8E07",
"-#	c #A57D0D",
";#	c #201A16",
">#	c #5A4610",
",#	c #9A750C",
"'#	c #201B19",
")#	c #1C1918",
"!#	c #D09D0A",
"~#	c #554319",
"{#	c #3F3216",
"]#	c #F9BE01",
"^#	c #A57E0A",
"/#	c #453618",
"(#	c #F6B902",
"_#	c #A98109",
":#	c #FEC000",
"<#	c #866610",
"[#	c #9F780D",
"}#	c #F8BC01",
"|#	c #A37C09",
"1#	c #F1B603",
"2#	c #3C2E18",
"3#	c #B48808",
"4#	c #F6B903",
"5#	c #3B2F19",
"6#	c #634C18",
"7#	c #FEC009",
"8#	c #FEC215",
"9#	c #C0920C",
"0#	c #AB820A",
"a#	c #FFC202",
"b#	c #F9BB01",
"c#	c #413414",
"d#	c #9A750F",
"e#	c #4C3B16",
"f#	c #644D12",
"g#	c #856512",
"h#	c #201B16",
"i#	c #4C3A13",
"j#	c #FCBD00",
"k#	c #A17A0C",
"l#	c #221D19",
"m#	c #221D1B",
"n#	c #CD9B09",
"o#	c #FDBF05",
"p#	c #4E3E19",
"q#	c #211D1A",
"r#	c #201D1A",
"s#	c #433516",
"t#	c #FBBF00",
"u#	c #CD9A05",
"v#	c #503E12",
"w#	c #F2B601",
"x#	c #EDB204",
"y#	c #1D1917",
"z#	c #1D1816",
"A#	c #2E2417",
"B#	c #FCBC01",
"C#	c #E3AC03",
"D#	c #3F3114",
"E#	c #D6A104",
"F#	c #F8BB01",
"G#	c #3D3118",
"H#	c #5D4818",
"I#	c #FEBF05",
"J#	c #FEC20A",
"K#	c #B98C0D",
"L#	c #AE850A",
"M#	c #FCBE00",
"N#	c #B6890B",
"O#	c #D19D08",
"P#	c #A77E0B",
"Q#	c #241E1B",
"R#	c #C9970A",
"S#	c #FCBE03",
"T#	c #4A3919",
"U#	c #473816",
"V#	c #7A5D11",
"W#	c #97720E",
"X#	c #443518",
"Y#	c #574419",
"Z#	c #FDBF06",
"`#	c #FEC10B",
" $	c #B2860E",
".$	c #231E1A",
"+$	c #B58A09",
"@$	c #403117",
"#$	c #211E1C",
"$$	c #231F1C",
"%$	c #5D4715",
"&$	c #AF840A",
"*$	c #231D1A",
"=$	c #C0900C",
"-$	c #FBBC03",
";$	c #44351A",
">$	c #4C3C15",
",$	c #FDC000",
"'$	c #F4B803",
")$	c #765A0F",
"!$	c #75590D",
"~$	c #765A13",
"{$	c #745912",
"]$	c #7A5A10",
"^$	c #493916",
"/$	c #4F3E19",
"($	c #FDBF04",
"_$	c #AC8211",
":$	c #BB8D09",
"<$	c #FFBE00",
"[$	c #FFBF01",
"}$	c #B68909",
"|$	c #251F19",
"1$	c #B88B0D",
"2$	c #F9BC04",
"3$	c #41341C",
"4$	c #503E15",
"5$	c #FEBE00",
"6$	c #FDBE00",
"7$	c #4E3D15",
"8$	c #493A19",
"9$	c #FCBE06",
"0$	c #A67D10",
"a$	c #201B1A",
"b$	c #3F331C",
"c$	c #5C471A",
"d$	c #5B4619",
"e$	c #5C4618",
"f$	c #5D4719",
"g$	c #5B461A",
"h$	c #594418",
"i$	c #594519",
"j$	c #58451A",
"k$	c #57441A",
"l$	c #584419",
"m$	c #564319",
"n$	c #57441B",
"o$	c #56431B",
"p$	c #55421A",
"q$	c #574519",
"r$	c #56441A",
"s$	c #584519",
"t$	c #5B4719",
"u$	c #5C4718",
"v$	c #5E4818",
"w$	c #604B17",
"x$	c #634C17",
"y$	c #654D17",
"z$	c #684F17",
"A$	c #6B5117",
"B$	c #6D5317",
"C$	c #6E5416",
"D$	c #705617",
"E$	c #705616",
"F$	c #715516",
"G$	c #735717",
"H$	c #4D3C18",
"I$	c #201C1B",
"J$	c #231E1D",
"K$	c #B1860E",
"L$	c #FEC20E",
"M$	c #FEC20B",
"N$	c #4A3B19",
"O$	c #1E1A1A",
"P$	c #1E1918",
"Q$	c #1C1817",
"R$	c #1C1717",
"S$	c #1D1817",
"T$	c #1C1816",
"U$	c #504018",
"V$	c #FEC306",
"W$	c #FFC406",
"X$	c #514117",
"Y$	c #1D1919",
"Z$	c #1C1A19",
"`$	c #1B1917",
" %	c #1B1918",
".%	c #1C1917",
"+%	c #1A1615",
"@%	c #1B1717",
"#%	c #1B1818",
"$%	c #1B1716",
"%%	c #1C1818",
"&%	c #1B1817",
"*%	c #1B1816",
"=%	c #201E1C",
"-%	c #4B3D18",
";%	c #FEC508",
">%	c #FFC911",
",%	c #D2A206",
"'%	c #5B4A17",
")%	c #4B3E16",
"!%	c #4B3E14",
"~%	c #4A3D14",
"{%	c #493B15",
"]%	c #493B14",
"^%	c #493C13",
"/%	c #4A3B14",
"(%	c #4D3D16",
"_%	c #4D3E15",
":%	c #4B3D12",
"<%	c #4A3B12",
"[%	c #4C3C13",
"}%	c #4F3F13",
"|%	c #4F4014",
"1%	c #4E3D12",
"2%	c #4E3D13",
"3%	c #503E13",
"4%	c #513F13",
"5%	c #513E13",
"6%	c #513E12",
"7%	c #4F3E13",
"8%	c #4C3B13",
"9%	c #503E14",
"0%	c #4D3E12",
"a%	c #453812",
"b%	c #433613",
"c%	c #423513",
"d%	c #3E3412",
"e%	c #3C3114",
"f%	c #3E3314",
"g%	c #3C3313",
"h%	c #3A3015",
"i%	c #3A3115",
"j%	c #3A3018",
"k%	c #3A3118",
"l%	c #372E16",
"m%	c #362E18",
"n%	c #362E19",
"o%	c #332C1A",
"p%	c #413619",
"q%	c #C39708",
"r%	c #FFC710",
"s%	c #FFCC18",
"t%	c #FFC904",
"u%	c #FFC907",
"v%	c #FFCB12",
"w%	c #FFC909",
"x%	c #FFC807",
"y%	c #FFCA13",
"z%	c #FFCA11",
"A%	c #FFC804",
"B%	c #FFC90F",
"C%	c #FFC912",
"D%	c #FFC806",
"E%	c #FFC704",
"F%	c #FFCA14",
"G%	c #FFC90E",
"H%	c #FFCA0F",
"I%	c #FFC80E",
"J%	c #FFC810",
"K%	c #FFC811",
"L%	c #FFC90B",
"M%	c #FFCA0D",
"N%	c #FFCA0A",
"O%	c #FFC908",
"P%	c #FFCA0B",
"Q%	c #FFC906",
"R%	c #FFC808",
"S%	c #FFC805",
"T%	c #FFC702",
"U%	c #FFC90D",
"V%	c #FFC90A",
"W%	c #FFC80D",
"X%	c #FFC80C",
"Y%	c #FFC90C",
"Z%	c #FFCB0F",
"`%	c #FFC902",
"                                              . +                                               ",
"                                            @ # $ %                                             ",
"                                          & * = - ; >                                           ",
"                                          , ' ) ! ~ {                                           ",
"                                        ] ^ / ( _ ! : <                                         ",
"                                        [ } | ! 1 2 3 4                                         ",
"                                      5 6 ! | 7 ( 8 9 0 a                                       ",
"                                      b c d 1 e f g d h i                                       ",
"                                    j k ( ! l m n o g ) p &                                     ",
"                                    [ } ( q r s t u d v w x                                     ",
"                                  5 y z 1 A B s s C D E 9 F G                                   ",
"                                  H } ( ( I s J s t K L v M N                                   ",
"                                O P ) ( Q R J J s s S T L U V W                                 ",
"                                X Y ( U Z s J J J s s `  ...+.@.                                ",
"                              #.$.o 7 %.&.J J J J J s *.=.v -.;.G                               ",
"                              >.%.9 7 ,.s J '.J J J J s ).L !.~.{.                              ",
"                            j ].E D ^./.J J J J J J s s (._...7 :.<.                            ",
"                            [.A L }.|.s 1.J J J J s s s t 2.D 3.4.5.                            ",
"                          6.7.L 8.9.0.s J J J J s s t t a.b.c.8.D d.e.                          ",
"                          f.g.h...i.s J J J J s s t t t t t j.k.}.l.m.                          ",
"                        n.o.!.p.q.r.J s s s s s t t t t t t s.t...D u.v.                        ",
"                        w.g.o L x.t t s t y.t t t t t t t t z.A.!...B.C.                        ",
"                      <.D.D p.E.F.G.H.s s s s t t t t t t I.J.K.L.D 7 6 M.                      ",
"                      N.O.D o P.Q.R.;.t t s y.t s t t t t S.T.U.V.D ..} X                       ",
"                    ] W.9 v X.Y.Z.`. +.+t s s s t t t ++@+#+$+_.%+&+2 ) *+v.                    ",
"                    =+-+v p.;+>+h.,+'+)+!+t t t t t t ~+{+]+^+/+(+_+..d :+<+                    ",
"                  [+}+!.|+1+2+3+4+5+6+7+8+9+t t t t 0+a+7+b+c+d+e+f+g+d ( o.6.                  ",
"                  h+k.L p.i+j+h.k+l+m+n+o+p+q+t t r+s+t+u+v+w+x+|+y+z+..9 A+B+                  ",
"                C+D+9  .E+F+G+H+I+J+H+K+L+M+N+O+P+Q+T R+S+Z.T+U+V+W+X+Y+/ / Z+v.                ",
"                `+k.L |+ @s .@h.+@@@#@$@%@L &@*@=@-@/+;@>@h.,@'@H+)@z.!@..v ~@{@                ",
"              ]@^@/@L (@_@s :@Z.<@[@#@}@|@m+1@2@3@4@-+$@5@6@7@8@V+9@z.0@a@b@d c@d@              ",
"              e@f@g@m+h@s J i@m+j@k@l@m@n@o@W+p@q@r@s@t@u@v@w@x@7+y@t z.z@/@9 A@B@              ",
"            C@D@..|+E@F@J J B /+G@H@I@t.J@K@L@M@N@O@P@Q@=.R@S@o@T@U@t t V@W@v E X@]             ",
"          Y@Z@k.o =.`@J J J s  #.#+#@#Z.##t $#7+/+%#t &#*#=#-#;#>#z.t t t ,#'#)#= !#            ",
"          C@~#8.!.{#]#J '.J s ^#.#/#(#_#:#t <#M+Z.[#t }#|#1#2#*#3#t t t t 4#5#..9 6#7#          ",
"        8#9#}./@R.0#J J a#J s b#c#/+d#t s z.e#V+h.f#t J J g#h#i#j#t t t t t k#l#) m#n#          ",
"        o#p#q#r#s#t#J J y.y.y.t u#v#w#t s x#t.y#z#A#B#s J C#D#E#z.t t t t t F#G#k.7 H#I#        ",
"      J#K#}.D l#L#J J J 1.J s s s M#t t t N#V+y#L m+O#t s J }#t t t z.z.t a.a.P#Q#D q#R#        ",
"      S#T#'#/@U#M#s J J J J s y.t t t t t V#h./@}.!.W#z.t s s t t t z.z.s t t b#X#q#'#Y#Z#      ",
"    `# $'#...$+$s s J J J J J s a.t s t ++@$|+= #$$$%$z.t s s t t t z.z.s s t z.&$*$!.m#=$M.    ",
"    -$;$-.'#>$,$J 1.'.J J s s t z.t s s '$)$!$~$~${$]$++t s J t t t t t s s s t j#^$R./@/$($    ",
"  #._$}./ l#:$s J '.'.J J t t z.<$z.t t t t z.z.<$z.z.z.t s s t [$t z.t t t s s t }$|$#$$$1$Y@  ",
"  2$3$) /@4$5$z.z.z.z.t t t z.<$<$<$z.z.z.z.z.z.<$<$z.z.z.z.t z.z.z.z.z.z.z.t t t 6$7$-+..8$9$  ",
"<.0$D / a$b$c$d$e$f$g$h$i$j$k$l$m$n$o$p$k$q$q$m$r$Y#s$t$u$v$w$x$y$z$A$B$G.C$D$E$F$G$H$..I$J$K$L$",
"M$N$U d d ( O$d L y#L / / p.P$/ Q$E / / P$Q$R$Q$S$y#E d v ) E E y#T$E E E y#E y#P$E / 2 _ ! U$V$",
"W$X$z ( d Y$d Z$g Q$d g )#v `$)#)#)#)#g  %.%+%)#@%#%@%$%%%&%&%*%&%$%$%@%@%&%#%@%%%)#d =%( ! -%;%",
">%,%'%)%!%~%{%]%^%/%(%_%:%<%[%}%|%1%2%3%4%5%6%7%8%9%0%>$]%a%b%c%d%e%f%g%h%h%i%j%k%l%m%n%o%p%q%r%",
"  s%t%u%v%w%x%y%z%A%B%C%D%E%F%B%G%>%H%I%J%K%L%M%N%O%P%L%Q%R%w%S%D%R%E%T%I%U%V%u%B%W%X%Y%Z%`%M%  "};
