<?xml version="1.0" encoding="UTF-8" standalone="no"?>
<!-- Generator: Adobe Illustrator 11.0, SVG Export Plug-In . SVG Version: 6.0.0 Build 78)  -->
<!-- Created by Cary Bass http://commons.wikipedia.com/wiki/User:Bastique on January 20, 2006 -->
<svg
   xmlns:dc="http://purl.org/dc/elements/1.1/"
   xmlns:cc="http://creativecommons.org/ns#"
   xmlns:rdf="http://www.w3.org/1999/02/22-rdf-syntax-ns#"
   xmlns:svg="http://www.w3.org/2000/svg"
   xmlns="http://www.w3.org/2000/svg"
   xmlns:sodipodi="http://sodipodi.sourceforge.net/DTD/sodipodi-0.dtd"
   xmlns:inkscape="http://www.inkscape.org/namespaces/inkscape"
   version="1.0"
   width="48"
   height="48"
   id="xlog"
   sodipodi:version="0.32"
   inkscape:version="0.46"
   sodipodi:docname="xlog.svg"
   inkscape:output_extension="org.inkscape.output.svg.inkscape"
   inkscape:export-xdpi="90"
   inkscape:export-ydpi="90">
  <defs
     id="defs58">
    <inkscape:perspective
       sodipodi:type="inkscape:persp3d"
       inkscape:vp_x="0 : 274.08664 : 1"
       inkscape:vp_y="0 : 1000 : 0"
       inkscape:vp_z="623.92822 : 274.08664 : 1"
       inkscape:persp3d-origin="311.96411 : 182.72443 : 1"
       id="perspective14" />
  </defs>
  <sodipodi:namedview
     inkscape:window-height="966"
     inkscape:window-width="1272"
     inkscape:pageshadow="2"
     inkscape:pageopacity="0.0"
     guidetolerance="10.0"
     gridtolerance="10.0"
     objecttolerance="10.0"
     borderopacity="1.0"
     bordercolor="#666666"
     pagecolor="#ffffff"
     id="base"
     inkscape:zoom="15.604167"
     inkscape:cx="12.592791"
     inkscape:cy="24.000001"
     inkscape:window-x="0"
     inkscape:window-y="25"
     inkscape:current-layer="xlog"
     inkscape:document-units="px"
     grid_units="mm"
     showgrid="false">
    <inkscape:grid
       id="GridFromPre046Settings"
       type="xygrid"
       originx="0px"
       originy="0px"
       spacingx="0.25mm"
       spacingy="0.25mm"
       color="#0000ff"
       empcolor="#0000ff"
       opacity="0.2"
       empopacity="0.4"
       empspacing="5"
       units="mm"
       visible="true"
       enabled="true" />
  </sodipodi:namedview>
  <metadata
     id="metadata60">
    <rdf:RDF>
      <cc:Work
         rdf:about="">
        <dc:format>image/svg+xml</dc:format>
        <dc:type
           rdf:resource="http://purl.org/dc/dcmitype/StillImage" />
        <cc:license
           rdf:resource="http://creativecommons.org/licenses/publicdomain/" />
      </cc:Work>
      <cc:License
         rdf:about="http://creativecommons.org/licenses/publicdomain/">
        <cc:permits
           rdf:resource="http://creativecommons.org/ns#Reproduction" />
        <cc:permits
           rdf:resource="http://creativecommons.org/ns#Distribution" />
        <cc:permits
           rdf:resource="http://creativecommons.org/ns#DerivativeWorks" />
      </cc:License>
    </rdf:RDF>
  </metadata>
  <g
     id="g2907"
     transform="matrix(7.693193e-2,0,0,7.5833685e-2,1.1831789,2.481405)">
    <path
       id="path2889"
       d="M 295.84375,9.625 C 280.56684,9.7059068 270.50089,23.813625 265.0625,36.5 C 172.18368,198.06519 78.058421,358.93364 -14,520.9375 C -20.829463,540.11547 -1.0883658,561.5426 18.53125,557.21875 C 207.86361,556.9309 397.20493,557.89808 586.53125,556.65625 C 606.05502,553.39207 615.65348,526.10648 602.46875,511.28125 C 507.43559,347.23157 413.38004,182.58741 317.6875,18.9375 C 312.13891,12.888602 304.08329,9.328277 295.84375,9.625 z"
       style="fill:#ffff00" />
    <g
       transform="translate(-3.188547,21.62979)"
       id="g4">
      <path
         id="sign_border"
         d="M 597.6,499.6 L 313.8,8 C 310.9,3 305.6,0 299.9,0 C 294.2,0 288.9,3.1 286,8 L 2.2,499.6 C -0.7,504.6 -0.7,510.7 2.2,515.6 C 5.1,520.6 10.4,523.6 16.1,523.6 L 583.7,523.6 C 589.4,523.6 594.7,520.5 597.6,515.6 C 600.5,510.6 600.5,504.5 597.6,499.6 z" />
      <polygon
         points="43.9,491.5 299.9,48.2 555.9,491.5 43.9,491.5 "
         id="sign_bg"
         style="fill:#f7f619" />
    </g>
  </g>
  <g
     style="fill:#000000;stroke:none"
     id="g2865"
     transform="matrix(8.0836501e-2,0,0,7.9682443e-2,55.915259,3.0055755)">
    <path
       style="fill:#000000;fill-opacity:1;stroke:none;stroke-width:0.67679876;stroke-linecap:butt;stroke-linejoin:bevel;stroke-miterlimit:4;stroke-dasharray:none;stroke-opacity:1"
       d="M -473.59375,270.34375 C -493.67926,290.47717 -506.09375,318.26799 -506.09375,348.9375 C -506.09375,379.60702 -493.67926,407.39783 -473.59375,427.53125 L -459.8125,413.75 C -476.37551,397.1391 -486.625,374.22825 -486.625,348.9375 C -486.625,323.64675 -476.37551,300.7359 -459.8125,284.125 L -473.59375,270.34375 z M -316.03125,270.34375 L -329.8125,284.125 C -313.24949,300.7359 -303,323.64675 -303,348.9375 C -303,374.22826 -313.24949,397.1391 -329.8125,413.75 L -316.03125,427.53125 C -295.94574,407.39783 -283.53125,379.60702 -283.53125,348.9375 C -283.53125,318.26798 -295.94574,290.47717 -316.03125,270.34375 z M -448.5625,295.375 C -462.24184,309.10177 -470.6875,328.04708 -470.6875,348.9375 C -470.6875,369.82792 -462.24184,388.77323 -448.5625,402.5 L -436.03125,389.96875 C -446.50315,379.44927 -452.96875,364.93799 -452.96875,348.9375 C -452.96875,332.93701 -446.50315,318.42573 -436.03125,307.90625 L -448.5625,295.375 z M -341.0625,295.375 L -353.59375,307.90625 C -343.12184,318.42573 -336.65625,332.93701 -336.65625,348.9375 C -336.65625,364.938 -343.12185,379.44927 -353.59375,389.96875 L -341.0625,402.5 C -327.38316,388.77323 -318.9375,369.82792 -318.9375,348.9375 C -318.9375,328.04708 -327.38316,309.10177 -341.0625,295.375 z M -424.75,319.1875 C -432.32969,326.81493 -437,337.33803 -437,348.9375 C -437,360.53697 -432.32969,371.06007 -424.75,378.6875 L -412.21875,366.15625 C -416.59249,361.73597 -419.28125,355.6483 -419.28125,348.9375 C -419.28125,342.22764 -416.59142,336.14664 -412.21875,331.71875 L -424.75,319.1875 z M -364.875,319.1875 L -377.40625,331.71875 C -373.02582,336.14664 -370.3125,342.22763 -370.3125,348.9375 C -370.3125,355.64831 -373.02475,361.73597 -377.40625,366.15625 L -364.875,378.6875 C -357.29531,371.06007 -352.625,360.53698 -352.625,348.9375 C -352.625,337.33803 -357.29531,326.81493 -364.875,319.1875 z M -394.8125,340.40625 C -397.21711,340.40625 -399.38507,341.39886 -400.9375,343 C -400.96842,343.03189 -401.00082,343.06138 -401.03125,343.09375 C -401.15775,343.22832 -401.28859,343.35745 -401.40625,343.5 C -401.43008,343.5289 -401.44529,343.56453 -401.46875,343.59375 C -401.63688,343.80294 -401.78934,344.02533 -401.9375,344.25 C -402.07076,344.45208 -402.19644,344.66144 -402.3125,344.875 C -402.3237,344.89569 -402.33271,344.91671 -402.34375,344.9375 C -402.59217,345.40355 -402.80927,345.89385 -402.96875,346.40625 C -403.05196,346.67359 -403.13059,346.94089 -403.1875,347.21875 C -403.18949,347.22851 -403.18554,347.24023 -403.1875,347.25 C -403.2414,347.51813 -403.28439,347.78595 -403.3125,348.0625 C -403.31355,348.07268 -403.31149,348.08356 -403.3125,348.09375 C -403.33965,348.37075 -403.34375,348.6534 -403.34375,348.9375 C -403.34375,349.22614 -403.34049,349.50003 -403.3125,349.78125 C -403.3115,349.7915 -403.31354,349.80226 -403.3125,349.8125 C -403.28457,350.08324 -403.24016,350.36242 -403.1875,350.625 C -403.12955,350.9133 -403.05497,351.19172 -402.96875,351.46875 C -402.80927,351.98115 -402.59217,352.47145 -402.34375,352.9375 C -402.33295,352.95776 -402.32346,352.97983 -402.3125,353 C -402.19534,353.21633 -402.0723,353.42045 -401.9375,353.625 C -401.78934,353.84967 -401.63688,354.07206 -401.46875,354.28125 C -401.30181,354.48896 -401.1228,354.68388 -400.9375,354.875 C -399.38507,356.47613 -397.2171,357.46874 -394.8125,357.46875 C -392.40789,357.46875 -390.23993,356.47614 -388.6875,354.875 C -388.65668,354.84321 -388.62408,354.81351 -388.59375,354.78125 C -388.4667,354.64607 -388.33687,354.51823 -388.21875,354.375 C -388.19502,354.34625 -388.17961,354.31031 -388.15625,354.28125 C -387.98812,354.07206 -387.83566,353.84967 -387.6875,353.625 C -387.5527,353.42045 -387.42966,353.21633 -387.3125,353 C -387.30154,352.97983 -387.29205,352.95776 -387.28125,352.9375 C -387.03283,352.47145 -386.81573,351.98115 -386.65625,351.46875 C -386.65327,351.45916 -386.6592,351.4471 -386.65625,351.4375 C -386.57919,351.18454 -386.49107,350.91861 -386.4375,350.65625 C -386.43544,350.64618 -386.43953,350.63508 -386.4375,350.625 C -386.38484,350.36242 -386.34043,350.08324 -386.3125,349.8125 C -386.31146,349.80226 -386.3135,349.7915 -386.3125,349.78125 C -386.28451,349.50003 -386.28125,349.22614 -386.28125,348.9375 C -386.28125,348.6384 -386.28247,348.3536 -386.3125,348.0625 C -386.34061,347.78595 -386.3836,347.51813 -386.4375,347.25 C -386.43946,347.24023 -386.43551,347.22851 -386.4375,347.21875 C -386.49237,346.95085 -386.57691,346.69564 -386.65625,346.4375 C -386.65917,346.42792 -386.6533,346.41582 -386.65625,346.40625 C -386.81573,345.89385 -387.03283,345.40355 -387.28125,344.9375 C -387.29229,344.91671 -387.3013,344.89569 -387.3125,344.875 C -387.42856,344.66144 -387.55424,344.45208 -387.6875,344.25 C -387.83566,344.02533 -387.98812,343.80294 -388.15625,343.59375 C -388.17971,343.56453 -388.19492,343.5289 -388.21875,343.5 C -388.36462,343.32328 -388.52812,343.16438 -388.6875,343 C -390.23993,341.39887 -392.40789,340.40625 -394.8125,340.40625 z"
       id="path2867" />
    <path
       style="fill:#000000;fill-rule:evenodd;stroke:none;stroke-width:0.63779527;stroke-linecap:butt;stroke-linejoin:miter;stroke-miterlimit:4;stroke-dasharray:none;stroke-opacity:1"
       d="M -402.92095,368.4375 L -428.7647,453.5 L -360.85845,453.5 L -386.73345,368.4375 C -390.20876,371.35544 -392.97718,371.21833 -394.7647,371.21875 C -396.55252,371.21917 -399.44565,371.35544 -402.92095,368.4375 z"
       id="path2869"
       sodipodi:nodetypes="cccczc" />
  </g>
  <path
     style="fill:#fce94f"
     d="M 4.3993651,41.32336 C 4.3993651,41.311196 8.7887356,33.807972 14.153522,24.649534 C 19.518308,15.491096 23.930374,7.9578895 23.958111,7.9090758 C 23.997073,7.8405078 26.235355,11.621332 33.799457,24.532708 C 39.184458,33.724516 43.598575,41.26768 43.608601,41.295288 C 43.619836,41.326215 36.096395,41.345486 24.013099,41.345486 C 13.225547,41.345486 4.3993651,41.33553 4.3993651,41.323362 L 4.3993651,41.32336 z M 26.770783,39.162775 C 26.770783,39.123359 24.68357,32.37077 24.66556,32.351922 C 24.656949,32.342911 24.567133,32.38528 24.465968,32.446075 C 24.2242,32.591365 23.802718,32.593621 23.532888,32.451064 L 23.332341,32.345113 L 23.248865,32.599338 C 23.036034,33.247497 21.246302,39.08958 21.246302,39.13615 C 21.246302,39.169718 22.247588,39.188806 24.008541,39.188806 C 25.527774,39.188806 26.770783,39.177093 26.770783,39.162777 L 26.770783,39.162775 z M 18.219641,36.537961 L 18.777559,35.98988 L 18.422037,35.580935 C 16.667432,33.562687 16.15139,30.869665 17.039936,28.368292 C 17.344151,27.511892 17.858125,26.673646 18.589219,25.841556 L 18.781165,25.623093 L 18.21031,25.062303 L 17.639455,24.501512 L 17.323337,24.843344 C 16.614389,25.609956 15.921486,26.731998 15.559647,27.699346 C 15.175976,28.725068 15.005048,29.682314 15.005149,30.804714 C 15.005354,33.054409 15.763684,35.01726 17.301699,36.749062 C 17.466298,36.934402 17.614642,37.086043 17.631349,37.086043 C 17.648054,37.086043 17.912787,36.839407 18.219643,36.537961 L 18.219641,36.537961 z M 30.711722,36.735564 C 32.16542,35.158126 33.008618,32.982865 33.005335,30.818548 C 33.002283,28.806495 32.362964,26.969433 31.101243,25.347219 C 30.92181,25.116518 30.679426,24.83707 30.562613,24.726223 L 30.350227,24.524681 L 29.782035,25.086674 L 29.213848,25.648662 L 29.518883,25.973435 C 30.558609,27.08043 31.244488,28.680144 31.359131,30.265542 C 31.504131,32.270741 30.801425,34.287546 29.464569,35.703041 L 29.217631,35.964505 L 29.784827,36.525516 C 30.096785,36.83407 30.365873,37.080351 30.382801,37.072805 C 30.399726,37.065259 30.54774,36.913499 30.711721,36.735561 L 30.711722,36.735564 z M 20.198762,34.587097 L 20.707953,34.083081 L 20.4865,33.830864 C 19.995292,33.271421 19.730831,32.795019 19.519184,32.08834 C 19.080636,30.624053 19.455184,28.917878 20.456064,27.820548 L 20.717277,27.534166 L 20.18637,27.012761 L 19.655463,26.491354 L 19.491196,26.680064 C 18.302998,28.045033 17.798004,29.414529 17.871624,31.072187 C 17.933717,32.470265 18.410148,33.674551 19.328256,34.754133 C 19.485874,34.939472 19.631649,35.091114 19.652204,35.091114 C 19.672755,35.091114 19.918708,34.864307 20.198763,34.587097 L 20.198762,34.587097 z M 28.637056,34.792474 C 29.474622,33.856779 29.986433,32.672818 30.119202,31.363864 C 30.284556,29.733663 29.691441,27.94438 28.608057,26.805084 L 28.329672,26.51233 L 27.815567,27.023134 L 27.301467,27.533932 L 27.551416,27.815585 C 28.100654,28.434485 28.505593,29.344183 28.631769,30.242615 C 28.807292,31.492423 28.357722,32.918126 27.489311,33.865631 L 27.299106,34.073158 L 27.813578,34.582401 C 28.096538,34.862487 28.342859,35.085462 28.360958,35.077901 C 28.379058,35.07034 28.503301,34.941899 28.637055,34.792473 L 28.637056,34.792474 z M 22.119891,32.693365 L 22.635788,32.182714 L 22.521287,32.059842 C 22.266868,31.786822 22.103556,31.37392 22.078023,30.939135 C 22.048981,30.444622 22.143989,30.107088 22.430251,29.687776 L 22.619489,29.410583 L 22.110663,28.904937 L 21.601836,28.39929 L 21.370192,28.649298 C 21.099625,28.941315 20.790551,29.537179 20.672796,29.993807 C 20.575397,30.37151 20.564507,31.13837 20.650792,31.54342 C 20.736867,31.947475 21.041379,32.575459 21.314489,32.912124 C 21.442446,33.06986 21.559932,33.200067 21.575568,33.201469 C 21.591202,33.202872 21.836149,32.974226 22.119893,32.693367 L 22.119891,32.693365 z M 27.071952,32.310183 C 27.654339,31.148352 27.501711,29.737085 26.682432,28.708514 L 26.429983,28.391574 L 25.907282,28.906813 L 25.384581,29.422051 L 25.587782,29.712878 C 26.063923,30.394347 26.064225,31.229952 25.588577,31.911552 L 25.391973,32.193279 L 25.903609,32.701918 L 26.415247,33.210558 L 26.646571,32.953941 C 26.7738,32.812799 26.965221,32.523108 27.071953,32.310183 L 27.071952,32.310183 z M 24.407095,31.382722 C 24.669115,31.213492 24.776662,30.74585 24.618267,30.464484 C 24.425131,30.121411 23.890946,30.021307 23.564212,30.266962 C 23.32755,30.444894 23.231561,30.741838 23.322705,31.014064 C 23.388926,31.211848 23.642204,31.445025 23.844448,31.494396 C 23.996693,31.53156 24.256485,31.479998 24.407095,31.382723 L 24.407095,31.382722 z"
     id="path2409" />
  <path
     style="fill:#fce94f"
     d="M 1.6371239,44.671121 C 1.2746407,44.551016 1.0564554,44.418945 0.75268545,44.135754 C 0.23580666,43.653893 -0.012760032,43.063057 0.03818718,42.437419 C 0.065751614,42.09893 0.1125396,42.012967 2.6520703,37.634912 C 5.2735962,33.1155 9.5072887,25.874288 17.237334,12.688608 C 19.584271,8.68527 21.585146,5.2521062 21.683722,5.0593529 C 22.375998,3.7056829 23.297645,3.0876437 24.343082,3.2760383 C 24.75358,3.3500134 25.272963,3.6004369 25.491141,3.8295829 C 25.719049,4.0689474 29.1823,9.945089 41.580279,31.128216 C 44.843202,36.703233 47.546031,41.301662 47.586562,41.346948 C 47.627088,41.392234 47.727912,41.574203 47.810615,41.751326 C 47.938384,42.024974 47.960558,42.142231 47.95819,42.531658 C 47.952331,43.494026 47.381271,44.335866 46.551411,44.605471 C 46.289933,44.690419 44.738937,44.69833 24.06324,44.720165 C 5.5623937,44.7397 1.8193984,44.731514 1.6371239,44.671122 L 1.6371239,44.671121 z M 46.524379,43.635289 C 46.654111,43.545409 46.831607,43.358116 46.918805,43.219083 C 47.051404,43.007678 47.077357,42.908618 47.077357,42.613988 C 47.077357,42.286923 47.055872,42.224035 46.77745,41.736187 C 45.286364,39.123512 25.031261,4.6183377 24.920234,4.501766 C 24.435114,3.9924192 23.580758,3.9924192 23.097371,4.501766 C 22.851955,4.7603606 1.0479453,42.041944 0.97090573,42.3347 C 0.8334851,42.856908 1.1041628,43.439831 1.6050797,43.700442 L 1.8465242,43.826057 L 24.067509,43.812382 L 46.288494,43.798708 L 46.524379,43.635289 z"
     id="path2411" />
  <path
     style="fill:#2e3436"
     d="M 1.9301868,43.758977 C 1.4087702,43.671206 0.98322697,43.156763 0.98614291,42.617714 C 0.98780572,42.310408 0.88294395,42.505002 3.2115746,38.487885 C 5.0318733,35.347686 22.325671,5.8239066 22.761012,5.113298 C 23.077055,4.5974202 23.185441,4.4661074 23.406315,4.3315015 C 23.926381,4.0145592 24.63802,4.1617614 24.970126,4.6549754 C 25.230501,5.0416626 46.615555,41.510135 46.928022,42.100323 C 47.057541,42.344969 47.061883,42.872014 46.936325,43.108754 C 46.799842,43.366079 46.470273,43.657783 46.248023,43.717965 C 46.016307,43.780714 2.2996377,43.821168 1.9301873,43.758977 L 1.9301868,43.758977 z M 43.709951,41.358964 C 40.64308,36.108477 24.065353,7.8223766 24.037703,7.7927726 C 24.015455,7.7689541 19.611772,15.235347 14.251741,24.384758 C 8.89171,33.534167 4.4551394,41.105403 4.3926963,41.209725 L 4.2791643,41.399402 L 24.006369,41.399402 C 34.85633,41.399402 43.722941,41.381204 43.709951,41.358964 z"
     id="path2413" />
  <path
     style="fill:#2e3436"
     d="M 21.300998,39.102458 C 21.300998,39.052387 23.332931,32.478888 23.355607,32.455603 C 23.366605,32.444309 23.460201,32.474636 23.563596,32.523 C 23.813861,32.640063 24.185111,32.634273 24.433526,32.509431 L 24.635497,32.407928 L 24.824196,33.008163 C 24.927978,33.338292 25.38703,34.82153 25.844307,36.304246 C 26.301587,37.786964 26.687439,39.030424 26.701757,39.067492 C 26.722367,39.120848 26.162529,39.134888 24.014394,39.134888 C 22.522027,39.134888 21.300998,39.120291 21.300998,39.102455 L 21.300998,39.102458 z"
     id="path2415" />
  <path
     style="fill:#2e3436"
     d="M 23.707704,31.382956 C 23.295128,31.164129 23.221286,30.64455 23.55949,30.340059 C 23.700269,30.213314 23.781259,30.184668 23.998853,30.184668 C 24.229306,30.184668 24.290938,30.209624 24.451595,30.367986 C 24.601913,30.516156 24.637568,30.593201 24.637568,30.769828 C 24.637568,31.037605 24.562829,31.205353 24.386191,31.334034 C 24.182923,31.482114 23.92916,31.500412 23.707704,31.382954 L 23.707704,31.382956 z"
     id="path2417" />
  <path
     style="fill:#2e3436"
     d="M 25.930632,32.672442 L 25.452336,32.19878 L 25.645582,31.915717 C 25.895373,31.54983 25.973485,31.276264 25.97051,30.777757 C 25.967801,30.324069 25.844509,29.94607 25.593375,29.621516 L 25.43981,29.423054 L 25.927009,28.940573 L 26.414213,28.45809 L 26.593309,28.660898 C 26.846695,28.94782 27.244081,29.7726 27.321625,30.172522 C 27.419198,30.675732 27.362491,31.422113 27.189711,31.908795 C 27.061013,32.271305 26.654918,32.944864 26.477591,33.089931 C 26.426371,33.131835 26.287419,33.025771 25.930632,32.672442 L 25.930632,32.672442 z"
     id="path2419" />
  <path
     style="fill:#2e3436"
     d="M 27.847318,34.563712 L 27.364957,34.084086 L 27.637847,33.768862 C 27.964319,33.391738 28.358146,32.670332 28.516236,32.159842 C 28.985713,30.643827 28.601207,28.897286 27.544036,27.743829 L 27.353861,27.536332 L 27.839722,27.055178 L 28.325583,26.574019 L 28.473457,26.713671 C 28.716833,26.943512 29.234718,27.684634 29.460725,28.126505 C 29.729319,28.651641 29.921963,29.249318 30.025547,29.878871 C 30.31085,31.612853 29.742035,33.541119 28.580918,34.77611 L 28.329672,35.043337 L 27.847318,34.563712 z"
     id="path2421" />
  <path
     style="fill:#2e3436"
     d="M 29.821644,36.505485 L 29.293772,35.980745 L 29.486153,35.765076 C 30.459295,34.674142 31.11871,33.334754 31.33758,32.004501 C 31.433504,31.421497 31.445324,30.290757 31.361289,29.736701 C 31.159722,28.407751 30.50405,27.016953 29.590966,25.981528 L 29.284016,25.633452 L 29.818752,25.10197 L 30.353491,24.570484 L 30.618565,24.856958 C 32.137103,26.498093 32.95164,28.581764 32.95164,30.825208 C 32.95164,32.847384 32.30189,34.681422 31.011315,36.302137 C 30.821483,36.540533 30.594919,36.801877 30.507841,36.882904 L 30.349519,37.030224 L 29.821644,36.505485 z"
     id="path2423" />
  <path
     style="fill:#2e3436"
     d="M 21.360304,32.89594 C 21.118699,32.607016 20.831585,32.042651 20.73133,31.659603 C 20.621998,31.241876 20.61917,30.364767 20.725877,29.969 C 20.832186,29.574712 21.14409,28.968938 21.378264,28.701951 L 21.567427,28.486284 L 22.062081,28.969275 C 22.554196,29.449792 22.556194,29.452835 22.451656,29.562523 C 22.107973,29.923131 21.921939,30.770949 22.069049,31.306188 C 22.145416,31.584053 22.352749,31.970115 22.482693,32.076419 C 22.553806,32.134595 22.497717,32.211244 22.084796,32.620163 C 21.820423,32.881976 21.586936,33.096185 21.565936,33.096185 C 21.544937,33.096185 21.452401,33.006074 21.360303,32.89594 L 21.360304,32.89594 z"
     id="path2425" />
  <path
     style="fill:#2e3436"
     d="M 19.359226,34.709312 C 18.59237,33.794428 18.151903,32.839493 17.963195,31.68273 C 17.860122,31.050892 17.919562,29.958647 18.092481,29.307043 C 18.329217,28.414961 18.944087,27.289039 19.46773,26.78875 L 19.661833,26.603303 L 20.125879,27.058349 C 20.381106,27.308626 20.589927,27.527802 20.589927,27.545405 C 20.589927,27.563009 20.4542,27.745306 20.288311,27.950506 C 19.919943,28.406176 19.593213,29.043017 19.432535,29.61854 C 19.333779,29.972261 19.312281,30.190555 19.313053,30.831673 C 19.313891,31.526245 19.330609,31.667607 19.462902,32.098722 C 19.641646,32.681202 19.949082,33.261162 20.327833,33.730348 L 20.606963,34.076129 L 20.11984,34.55586 L 19.632715,35.035595 L 19.359226,34.709312 z"
     id="path2427" />
  <path
     style="fill:#2e3436"
     d="M 17.292853,36.665863 C 16.09965,35.300594 15.368615,33.737306 15.119316,32.017846 C 15.015146,31.299356 15.03943,30.051059 15.172215,29.298774 C 15.364475,28.209521 15.779644,27.133868 16.385923,26.154186 C 16.646452,25.733201 17.218616,25.00006 17.467811,24.767912 L 17.639401,24.608065 L 18.166672,25.127809 L 18.693944,25.647553 L 18.353413,26.042497 C 17.168335,27.416939 16.581385,28.994332 16.581385,30.804714 C 16.581386,32.610844 17.163136,34.177401 18.352286,35.573452 L 18.688089,35.96768 L 18.148492,36.497579 L 17.608894,37.02748 L 17.292853,36.665863 z"
     id="path2429" />
  <path
     style="fill:#edd400"
     d="M 5.8862488,41.309536 C 5.1020032,41.297581 4.4603476,41.274946 4.4603476,41.259234 C 4.4603476,41.204626 21.331049,12.391114 23.082446,9.4545057 C 23.967459,7.9705802 23.972405,7.9639358 24.08387,8.1087113 C 24.563369,8.7315077 43.594139,41.205858 43.521934,41.278072 C 43.47801,41.321991 8.6156038,41.351136 5.8862488,41.309535 L 5.8862488,41.309536 z M 26.762083,39.140258 C 26.762083,39.085423 24.699609,32.417517 24.674065,32.389771 C 24.661585,32.376214 24.562886,32.401777 24.454735,32.446574 C 24.346585,32.491371 24.144837,32.528025 24.006409,32.528025 C 23.867981,32.528026 23.666235,32.491372 23.558083,32.446574 C 23.449931,32.401776 23.3468,32.379769 23.328901,32.397668 C 23.293649,32.432918 21.250896,39.048138 21.250796,39.127369 C 21.25076,39.153805 22.490788,39.175433 24.006409,39.175433 C 25.52203,39.175433 26.762083,39.159605 26.762083,39.140259 L 26.762083,39.140258 z M 18.229926,36.524727 L 18.763031,35.988837 L 18.347426,35.474057 C 17.612796,34.564124 17.120135,33.594944 16.824703,32.478504 C 16.690961,31.973103 16.672418,31.762966 16.674824,30.78024 C 16.677281,29.775991 16.695187,29.593238 16.846086,29.032159 C 17.130842,27.973365 17.667889,26.960993 18.431674,26.043212 C 18.607522,25.831905 18.751402,25.647277 18.751402,25.632926 C 18.751402,25.618577 18.499066,25.357557 18.190655,25.052888 L 17.629907,24.498943 L 17.327445,24.835853 C 16.319207,25.958923 15.597595,27.303433 15.25488,28.697463 C 14.644512,31.180195 15.151406,33.846652 16.623945,35.899293 C 17.037514,36.475787 17.538939,37.052074 17.631322,37.057071 C 17.667346,37.05902 17.936719,36.819464 18.229926,36.524726 L 18.229926,36.524727 z M 30.713277,36.724165 C 32.544334,34.780244 33.353227,31.888764 32.84708,29.096682 C 32.593474,27.697709 31.738182,26.002623 30.758693,24.957735 L 30.359517,24.531909 L 29.799215,25.088346 L 29.238909,25.644783 L 29.490483,25.94241 C 30.571836,27.221718 31.159148,28.539566 31.325657,30.060283 C 31.52761,31.904718 30.909615,33.981508 29.755115,35.338131 C 29.169452,36.026332 29.167098,35.905716 29.778171,36.51998 C 30.073975,36.817331 30.334078,37.060614 30.356178,37.060614 C 30.378278,37.060614 30.538973,36.909212 30.713276,36.724165 L 30.713277,36.724165 z M 20.144447,34.645894 C 20.407509,34.410454 20.636319,34.182438 20.652914,34.139192 C 20.669509,34.095947 20.53498,33.87763 20.35396,33.654046 C 19.694997,32.840139 19.37771,31.932745 19.371488,30.844325 C 19.365096,29.7259 19.714017,28.722864 20.384352,27.932679 L 20.726387,27.529491 L 20.197252,27.003106 L 19.668117,26.476717 L 19.397616,26.784021 C 18.755895,27.513055 18.286008,28.38552 18.033557,29.316744 C 17.842936,30.019886 17.827406,31.538501 18.004168,32.19012 C 18.191352,32.880158 18.418225,33.42499 18.726986,33.925962 C 19.005081,34.377178 19.553347,35.073965 19.630288,35.073965 C 19.650012,35.073965 19.881385,34.881332 20.144446,34.645893 L 20.144447,34.645894 z M 28.809446,34.587245 C 29.276569,34.006579 29.776842,33.007751 29.977972,32.254205 C 30.096243,31.811093 30.123366,31.542115 30.123366,30.812283 C 30.123366,29.71603 29.990848,29.140347 29.515243,28.170469 C 29.199894,27.527392 28.492055,26.5506 28.341393,26.5506 C 28.259705,26.5506 27.338852,27.450487 27.338852,27.530316 C 27.338852,27.556419 27.469023,27.737593 27.628121,27.932923 C 28.134115,28.554145 28.49237,29.407042 28.613674,30.279218 C 28.773169,31.425988 28.361911,32.812001 27.587664,33.737064 C 27.450817,33.900567 27.338852,34.063768 27.338852,34.099733 C 27.338852,34.167806 28.299823,35.069973 28.375039,35.072516 C 28.398614,35.073311 28.594097,34.854941 28.809447,34.587245 L 28.809446,34.587245 z M 22.443427,31.944042 C 21.968562,31.258809 21.968091,30.409817 22.442179,29.693421 L 22.618359,29.427197 L 22.113964,28.919826 C 21.532017,28.334446 21.555409,28.332432 21.116724,29.005686 C 20.742197,29.580474 20.596723,30.094554 20.600028,30.831594 C 20.603906,31.69633 20.856891,32.386854 21.393898,32.998472 L 21.592758,33.224961 L 22.106153,32.711569 L 22.619544,32.198177 L 22.443427,31.944042 z M 26.868381,32.651211 C 27.238313,32.093887 27.400272,31.553196 27.400019,30.876368 C 27.39976,30.181885 27.328376,29.844182 27.077459,29.35041 C 26.891148,28.983778 26.506057,28.416488 26.440153,28.411578 C 26.421701,28.410203 26.18181,28.635201 25.907059,28.911572 L 25.407512,29.414067 L 25.652221,29.856833 C 25.879024,30.267202 25.896839,30.337112 25.895691,30.812283 C 25.894462,31.321306 25.797254,31.60652 25.464566,32.077247 C 25.3961,32.174121 25.452249,32.255499 25.894533,32.700392 C 26.477154,33.286451 26.445679,33.288039 26.868381,32.651212 L 26.868381,32.651211 z M 24.447912,31.321102 C 24.803119,31.022215 24.775708,30.473006 24.394339,30.247726 C 23.675895,29.823333 22.95545,30.638028 23.500364,31.25865 C 23.670399,31.452308 23.739429,31.48518 23.976088,31.48518 C 24.179613,31.48518 24.304551,31.441732 24.447911,31.321103 L 24.447912,31.321102 z"
     id="path3168" />
  <path
     style="fill:#edd400"
     d="M 2.2493997,44.691034 C 1.3845634,44.632041 1.1810485,44.544876 0.66837264,44.013885 C 0.46784543,43.806193 0.078698724,43.212817 0.14301936,43.212817 C 0.16463346,43.212817 0.15411384,43.176769 0.11964356,43.13271 C 0.048311968,43.041535 0.0318811,42.123364 0.10158043,42.123364 C 0.14935742,42.123364 0.36127197,41.689277 0.36750684,41.578638 C 0.36949221,41.543391 0.39143955,41.500133 0.41627715,41.48251 C 0.51059362,41.415586 0.86093851,40.788307 0.8244034,40.751773 C 0.8033462,40.730714 0.81356206,40.713484 0.84710823,40.713484 C 0.8806544,40.713484 0.993605,40.548662 1.0981091,40.347213 C 1.202612,40.145763 1.3241225,39.941879 1.3681287,39.894134 C 1.4121362,39.846389 1.4657283,39.737246 1.4872257,39.651593 C 1.5087219,39.565941 1.5461196,39.495861 1.5703285,39.495861 C 1.5945362,39.495861 1.7102495,39.31562 1.8274656,39.095327 C 1.9446817,38.875033 2.1086027,38.579439 2.1917337,38.438451 C 2.2748653,38.297463 2.365106,38.138431 2.3922686,38.085046 C 2.4860647,37.900703 2.9932081,37.027974 3.1179056,36.836315 C 3.1867032,36.730574 3.2871078,36.557543 3.341028,36.451802 C 3.3949482,36.346061 3.4963429,36.17303 3.5663505,36.067289 C 3.6363575,35.961548 3.7282771,35.795727 3.7706152,35.698798 C 3.8129532,35.601869 3.8666101,35.522563 3.8898539,35.522563 C 3.9130983,35.522563 3.9704432,35.428838 4.0172897,35.314285 C 4.0641374,35.199732 4.1397307,35.0679 4.1852782,35.021323 C 4.2308263,34.974746 4.2680913,34.895441 4.2680913,34.845088 C 4.2680913,34.794734 4.2950629,34.753538 4.3280285,34.753538 C 4.360996,34.753538 4.4244643,34.652603 4.4690735,34.529238 C 4.5136821,34.405874 4.5670281,34.304939 4.5876188,34.304939 C 4.6082101,34.304939 4.7105609,34.139118 4.8150651,33.936448 C 4.9195679,33.733778 5.020159,33.553538 5.038597,33.535914 C 5.1292408,33.449274 5.2902401,33.151279 5.2468715,33.15042 C 5.2196224,33.149881 5.2276151,33.128252 5.2646303,33.102356 C 5.3621991,33.034097 5.7496828,32.382558 5.6934004,32.381395 C 5.6672894,32.380856 5.6784813,32.359226 5.7182687,32.333331 C 5.8136669,32.271242 6.3897913,31.29321 6.3317164,31.291942 C 6.3070018,31.291403 6.3170677,31.269774 6.3540829,31.243878 C 6.4516517,31.175619 6.8391354,30.52408 6.782853,30.522917 C 6.756742,30.522378 6.7656659,30.500748 6.802681,30.474853 C 6.9002498,30.406594 7.2877335,29.755055 7.2314511,29.753892 C 7.2053401,29.753353 7.2152227,29.731723 7.25341,29.705827 C 7.3440838,29.644338 7.8568763,28.775245 7.8568763,28.683054 C 7.8568763,28.643984 7.8796421,28.602403 7.9074673,28.590653 C 7.9824172,28.559007 8.3763523,27.896559 8.3209037,27.895414 C 8.2947927,27.894875 8.3037166,27.873245 8.3407317,27.847349 C 8.4383005,27.779091 8.8257842,27.127551 8.7695018,27.126388 C 8.7433908,27.125849 8.7532735,27.10422 8.7914607,27.078324 C 8.8851222,27.014809 9.3949271,26.146267 9.3949271,26.05021 C 9.3949271,26.008202 9.4175672,25.973831 9.4452386,25.973831 C 9.4729088,25.973831 9.5810549,25.809009 9.6855591,25.607561 C 9.7900619,25.40611 9.905408,25.20839 9.9418791,25.16818 C 9.9783501,25.127971 10.079285,24.95394 10.166178,24.781447 C 10.253072,24.608953 10.340032,24.453404 10.359423,24.435781 C 10.432268,24.369576 10.802107,23.730841 10.767594,23.730841 C 10.74778,23.730841 10.776884,23.685523 10.832272,23.630135 C 10.887659,23.574746 10.932978,23.488232 10.932978,23.437878 C 10.932978,23.387525 10.955618,23.346328 10.983289,23.346328 C 11.01096,23.346328 11.119106,23.181506 11.22361,22.980057 C 11.328113,22.778606 11.443459,22.580887 11.47993,22.540677 C 11.516401,22.500468 11.617335,22.327178 11.704229,22.15559 C 11.791122,21.984003 11.898265,21.804763 11.942324,21.757281 C 11.986382,21.709802 12.02243,21.629754 12.02243,21.579401 C 12.02243,21.529047 12.044059,21.487749 12.070495,21.487626 C 12.09693,21.487501 12.205074,21.321928 12.310815,21.119682 C 12.416556,20.917434 12.532911,20.719815 12.569382,20.680526 C 12.605853,20.641234 12.706788,20.4687 12.793681,20.297112 C 12.880575,20.125525 12.987717,19.946285 13.031776,19.898803 C 13.075835,19.851324 13.111883,19.771276 13.111883,19.720923 C 13.111883,19.670569 13.133512,19.629271 13.159947,19.629148 C 13.186382,19.629023 13.294527,19.463204 13.400268,19.260656 C 13.506009,19.058109 13.609701,18.87797 13.630695,18.860347 C 13.666933,18.829925 13.774785,18.639044 13.956577,18.283578 C 14.001642,18.19546 14.056277,18.108945 14.077988,18.091321 C 14.115337,18.061005 14.220673,17.875317 14.405175,17.514552 C 14.45024,17.426435 14.507523,17.339332 14.53247,17.320992 C 14.55742,17.302651 14.6089,17.216135 14.646876,17.128735 C 14.684853,17.041336 14.773231,16.883311 14.843275,16.77757 C 14.913321,16.671829 15.014745,16.498798 15.068665,16.393057 C 15.122585,16.287316 15.223519,16.114285 15.292964,16.008544 C 15.362409,15.902803 15.463343,15.729773 15.517263,15.624032 C 15.571183,15.518291 15.671739,15.34526 15.740723,15.239519 C 15.809704,15.133778 15.886408,15.004005 15.911173,14.951134 C 15.935938,14.898264 17.281583,12.591188 18.901496,9.8242986 C 20.521407,7.0574094 21.860234,4.7431237 21.876664,4.6814414 C 21.893096,4.6197592 21.932013,4.5692919 21.963149,4.5692919 C 21.994284,4.5692919 22.01976,4.5413295 22.01976,4.5071533 C 22.01976,4.4044808 22.665274,3.743572 22.911697,3.5939473 C 23.037956,3.5172863 23.162443,3.4242016 23.188338,3.3870942 C 23.214235,3.3499855 23.235863,3.3429566 23.236403,3.3714721 C 23.236943,3.3999875 23.273432,3.4007982 23.31749,3.3732741 C 23.46436,3.2815224 24.275453,3.2434043 24.48705,3.31831 C 24.892078,3.4616909 25.025952,3.5214186 25.272097,3.6685607 C 25.421896,3.7581085 25.54446,3.8546001 25.54446,3.8829848 C 25.54446,3.946662 25.991311,4.6532477 26.059542,4.6974628 C 26.086739,4.7150863 26.113706,4.7583439 26.11947,4.7935909 C 26.125237,4.8288379 26.220759,5.0018686 26.331748,5.1781036 C 26.442735,5.3543386 26.569651,5.5562078 26.613783,5.6267018 C 26.657915,5.6971957 26.726577,5.8341784 26.766365,5.9311076 C 26.806152,6.0280369 26.864724,6.1073426 26.896524,6.1073426 C 26.928322,6.1073426 26.95434,6.1440482 26.95434,6.1889106 C 26.95434,6.2337736 27.050195,6.4160288 27.167353,6.5939229 C 27.284508,6.7718171 27.400181,6.9586095 27.4244,7.0090172 C 27.448619,7.0594236 27.518584,7.179437 27.579878,7.2757113 C 27.75321,7.5479604 29.567141,10.609937 29.680387,10.821437 C 29.735879,10.925081 29.836917,11.096395 29.904912,11.202136 C 29.972908,11.307877 30.058806,11.46379 30.0958,11.548609 C 30.132793,11.633427 30.245774,11.825381 30.346866,11.975171 C 30.447957,12.124961 30.549834,12.307899 30.573258,12.381701 C 30.596682,12.455504 30.642742,12.515887 30.675614,12.515887 C 30.708486,12.515887 30.735381,12.557085 30.735381,12.607438 C 30.735381,12.657792 30.771429,12.738096 30.815488,12.785893 C 30.859547,12.83369 30.981099,13.03762 31.085604,13.239069 C 31.19011,13.440519 31.298252,13.60534 31.325924,13.60534 C 31.353597,13.60534 31.376235,13.646538 31.376235,13.69689 C 31.376235,13.747244 31.412284,13.82729 31.456342,13.874771 C 31.500401,13.922253 31.607544,14.101491 31.694437,14.27308 C 31.78133,14.444667 31.882265,14.617957 31.918736,14.658167 C 31.955209,14.698376 32.07055,14.896098 32.175054,15.097547 C 32.279558,15.298997 32.387703,15.463818 32.415375,15.463818 C 32.443047,15.463818 32.465688,15.505016 32.465688,15.555368 C 32.465688,15.605722 32.501736,15.685768 32.545795,15.733249 C 32.589854,15.780731 32.696998,15.959969 32.783892,16.131558 C 32.870785,16.303145 32.97172,16.475682 33.008191,16.514972 C 33.044662,16.554262 33.161015,16.751882 33.266756,16.954128 C 33.372497,17.156374 33.480641,17.321949 33.507077,17.322072 C 33.533512,17.322196 33.555141,17.363494 33.555141,17.413846 C 33.555141,17.464198 33.591189,17.544246 33.635248,17.591727 C 33.679306,17.639211 33.786451,17.818447 33.873344,17.990035 C 33.960238,18.161626 34.061172,18.33416 34.097643,18.37345 C 34.134114,18.412738 34.250468,18.61036 34.356209,18.812606 C 34.46195,19.01485 34.570094,19.180427 34.596529,19.18055 C 34.622964,19.180672 34.644593,19.221972 34.644593,19.272324 C 34.644593,19.322676 34.681859,19.401983 34.727405,19.448559 C 34.772956,19.495135 34.848552,19.626969 34.895398,19.741522 C 34.942245,19.856074 35.005907,19.949799 35.03688,19.949799 C 35.067852,19.949799 35.093191,19.990997 35.093191,20.04135 C 35.093191,20.091702 35.129239,20.171255 35.173298,20.218132 C 35.217357,20.265008 35.33992,20.468838 35.445661,20.671083 C 35.551402,20.873328 35.659547,21.038904 35.685982,21.039028 C 35.712417,21.03915 35.734046,21.08045 35.734046,21.130802 C 35.734046,21.181154 35.770094,21.261202 35.814153,21.308683 C 35.858211,21.356167 35.965356,21.535403 36.052249,21.706991 C 36.139143,21.878581 36.240077,22.051866 36.276548,22.092073 C 36.313019,22.132279 36.427092,22.322791 36.530038,22.515432 C 36.632992,22.708073 36.733926,22.880106 36.754337,22.89773 C 36.774755,22.915353 36.877971,23.095493 36.983712,23.29804 C 37.089453,23.500585 37.197597,23.666408 37.224033,23.666531 C 37.250468,23.666653 37.272097,23.707953 37.272097,23.758306 C 37.272097,23.808658 37.308478,23.887965 37.352953,23.934541 C 37.397422,23.981116 37.470928,24.091321 37.516301,24.179439 C 37.70641,24.548656 37.806806,24.726043 37.842739,24.756208 C 37.863733,24.773831 37.967424,24.953971 38.073165,25.156518 C 38.178906,25.359063 38.28705,25.524886 38.313485,25.525009 C 38.33992,25.525131 38.361549,25.566431 38.361549,25.616784 C 38.361549,25.667136 38.397931,25.746443 38.442406,25.793019 C 38.486875,25.839594 38.560381,25.949799 38.605753,26.037917 C 38.798471,26.412192 38.896438,26.584604 38.933493,26.614686 C 38.955205,26.632309 39.008735,26.718825 39.052454,26.806942 C 39.096167,26.89506 39.188386,27.053671 39.257387,27.159412 C 39.326381,27.265153 39.426951,27.438184 39.480872,27.543925 C 39.534787,27.649666 39.636215,27.822696 39.706261,27.928437 C 39.776293,28.034178 39.86468,28.192203 39.902657,28.279603 C 39.940634,28.367001 39.992114,28.453518 40.017062,28.47186 C 40.042011,28.490198 40.098188,28.577303 40.141907,28.66542 C 40.18562,28.753538 40.277839,28.912149 40.346839,29.01789 C 40.415834,29.123631 40.516403,29.296662 40.570325,29.402403 C 40.62424,29.508144 40.725668,29.681174 40.795713,29.786915 C 40.865746,29.892656 40.951832,30.036849 40.986995,30.107343 C 41.022153,30.177837 41.116307,30.340407 41.196222,30.468611 C 41.502646,30.96019 47.512259,41.200534 47.641,41.450467 C 47.695466,41.556208 47.76116,41.657142 47.786993,41.674766 C 47.81282,41.692389 47.831462,41.721228 47.828412,41.738851 C 47.825361,41.756475 47.845285,41.84299 47.872682,41.931108 C 47.940311,42.148604 47.918208,43.244859 47.846195,43.244859 C 47.840799,43.244859 47.826015,43.300173 47.813339,43.367778 C 47.800663,43.435383 47.730771,43.571198 47.658028,43.669589 C 47.585284,43.767979 47.525768,43.861184 47.525768,43.87671 C 47.525768,43.923467 47.067839,44.366355 47.019493,44.366355 C 46.99482,44.366355 46.940322,44.400669 46.898378,44.442609 C 46.784908,44.556082 46.68605,44.569896 45.603205,44.623595 C 44.346822,44.685899 3.1144187,44.750039 2.2493997,44.691033 L 2.2493997,44.691034 z M 46.538372,43.625664 C 46.927325,43.310856 47.034002,43.125385 47.063904,42.711981 C 47.085411,42.414625 47.061488,42.279295 46.947634,42.054245 C 46.712037,41.588561 35.002011,21.593558 26.777403,7.6133506 C 25.844284,6.0272358 25.022175,4.6468391 24.950492,4.5458026 C 24.782634,4.3092133 24.37154,4.123889 24.010621,4.1221011 C 23.666656,4.120397 23.219174,4.3245111 23.053299,4.558771 C 22.69669,5.0623993 7.0301952,31.795235 2.6558802,39.364314 C 1.1260228,42.011498 0.93564804,42.371709 0.93564804,42.619203 C 0.93564804,43.077714 1.2151208,43.505574 1.6726307,43.747487 C 1.8472501,43.83982 3.9029004,43.847883 24.08057,43.835387 L 46.296257,43.821628 L 46.538372,43.625664 z"
     id="path3170" />
  <path
     style="fill:#555753"
     d="M 4.0323671,43.731938 C 1.8120095,43.695086 1.7062108,43.687783 1.5330346,43.559394 C 1.1657795,43.287123 0.93432147,42.77433 1.0224441,42.428191 C 1.0426938,42.348653 1.3224441,41.822162 1.6441133,41.25821 C 1.9657832,40.694258 2.256676,40.175166 2.2905439,40.104672 C 2.3244111,40.034178 2.4155246,39.871149 2.4930173,39.742385 C 2.5705095,39.61362 2.7721934,39.267559 2.941204,38.973359 C 3.1102134,38.67916 3.2742676,38.395193 3.3057676,38.342323 C 3.3372662,38.289452 7.6802671,30.87797 12.956878,21.872363 C 18.233488,12.866755 22.705601,5.2590314 22.894905,4.9663102 C 23.268604,4.3884581 23.555306,4.1875938 24.006409,4.1875938 C 24.266572,4.1875945 24.695927,4.3690889 24.850063,4.5442197 C 24.970985,4.6816119 33.8867,19.842055 41.718159,33.227039 C 44.907506,38.678044 46.969897,42.266571 46.992148,42.403699 C 47.07112,42.890332 46.814074,43.400884 46.376069,43.627386 C 46.234241,43.70073 42.964224,43.719492 26.278774,43.742699 C 15.318425,43.757945 5.3075425,43.753101 4.0323671,43.731938 L 4.0323671,43.731938 z M 43.650271,41.34199 C 43.674681,41.317578 41.045576,36.781211 37.807806,31.261177 C 34.570043,25.741143 31.867929,21.132547 31.803112,21.019853 C 31.738293,20.907159 31.248041,20.070555 30.713659,19.160736 C 30.179276,18.250916 29.688897,17.414601 29.623924,17.302258 C 29.455895,17.011718 28.665518,15.669407 28.586305,15.540046 C 28.549841,15.480497 28.448906,15.305301 28.362006,15.150722 C 28.275107,14.996142 28.175167,14.821577 28.13992,14.762798 C 28.104673,14.70402 27.859547,14.288877 27.595194,13.840259 C 27.330842,13.391643 27.084719,12.975019 27.048254,12.914432 C 27.01179,12.853843 26.910855,12.677798 26.823955,12.523219 C 26.737056,12.368639 26.636735,12.195609 26.601021,12.138706 C 26.565308,12.081803 26.421115,11.838486 26.280594,11.598 C 26.140073,11.357515 25.995266,11.112388 25.958802,11.053274 C 25.922338,10.994159 25.821402,10.81932 25.734503,10.664741 C 25.647603,10.510161 25.547282,10.337131 25.511569,10.280228 C 25.475855,10.223325 25.337702,9.9893186 25.204562,9.7602131 C 25.071423,9.5311076 24.927612,9.2870735 24.884983,9.2179144 C 24.690236,8.9019635 24.49629,8.5698798 24.346496,8.2958888 C 24.174175,7.9806916 24.02593,7.7945663 23.98456,7.8414641 C 23.950252,7.8803569 21.700306,11.692631 20.355877,13.989853 C 19.298959,15.795804 18.879789,16.50332 18.702931,16.77985 C 18.658646,16.84909 18.602724,16.948998 18.578656,17.001869 C 18.554588,17.054739 18.439418,17.248013 18.322722,17.431367 C 18.206027,17.61472 18.110548,17.789193 18.110548,17.819084 C 18.110548,17.848975 18.075801,17.908178 18.033332,17.950647 C 17.990864,17.993116 17.8683,18.183916 17.760969,18.374649 C 17.653639,18.565382 17.44818,18.918512 17.304395,19.159382 C 17.063346,19.563195 4.8317004,40.425771 4.4318315,41.115126 L 4.2546161,41.420638 L 23.930249,41.403509 C 34.751847,41.394089 43.625855,41.366406 43.650271,41.341992 L 43.650271,41.34199 z"
     id="path3172" />
  <path
     style="fill:#555753"
     d="M 29.814153,36.488018 L 29.319298,35.979504 L 29.646578,35.5748 C 30.974145,33.933165 31.529235,32.276936 31.410636,30.311355 C 31.319899,28.807564 30.703302,27.297608 29.686853,26.090067 L 29.307931,25.639906 L 29.832623,25.117948 L 30.357319,24.595994 L 30.674128,24.948464 C 31.784168,26.183456 32.547134,27.795757 32.826925,29.497769 C 32.959902,30.306678 32.911434,31.923465 32.730848,32.702803 C 32.397604,34.140951 31.71311,35.464564 30.689486,36.650224 C 30.52505,36.840692 30.372171,36.996528 30.349759,36.996528 C 30.327348,36.996528 30.086324,36.767698 29.814153,36.488017 L 29.814153,36.488018 z"
     id="path3174" />
  <path
     style="fill:#555753"
     d="M 28.171963,34.865222 C 28.083846,34.785871 27.872235,34.57118 27.701717,34.388132 L 27.391684,34.055318 L 27.529564,33.907765 C 27.929088,33.480217 28.420831,32.551528 28.593781,31.897924 C 28.724435,31.40416 28.719319,30.352091 28.583298,29.741613 C 28.452227,29.153351 28.061505,28.358429 27.689278,27.922733 C 27.531792,27.738391 27.402938,27.562556 27.402938,27.531985 C 27.402938,27.501416 27.607111,27.275306 27.856657,27.029522 L 28.310374,26.582643 L 28.60966,26.914578 C 29.355745,27.742054 29.902725,28.997019 30.03523,30.185338 C 30.21451,31.793121 29.658454,33.55638 28.609838,34.705284 L 28.332177,35.0095 L 28.171963,34.865222 z"
     id="path3176" />
  <path
     style="fill:#555753"
     d="M 25.937159,32.654649 L 25.464705,32.222162 L 25.692016,31.845007 C 26.086746,31.190077 26.089044,30.429713 25.698256,29.780745 L 25.475313,29.410511 L 25.939228,28.943478 C 26.486927,28.392101 26.475995,28.389335 26.889344,29.183844 C 27.233279,29.844927 27.337314,30.204616 27.338159,30.735546 C 27.339226,31.407047 27.180087,31.984566 26.837957,32.550772 C 26.672862,32.823995 26.508946,33.05645 26.473699,33.067337 C 26.438452,33.078226 26.197009,32.892514 25.937159,32.654647 L 25.937159,32.654649 z"
     id="path3178" />
  <path
     style="fill:#555753"
     d="M 21.403474,38.838985 C 22.126202,36.453601 23.330722,32.59472 23.364627,32.5561 C 23.389046,32.528284 23.545034,32.541902 23.711265,32.586363 C 23.971086,32.655854 24.055402,32.652132 24.312038,32.559847 C 24.476232,32.500802 24.616731,32.458652 24.624257,32.466179 C 24.631784,32.473704 25.076064,33.892641 25.611548,35.61937 C 26.147029,37.346098 26.613521,38.813013 26.648193,38.879177 C 26.693689,38.966 26.687099,39.014769 26.624508,39.054431 C 26.576808,39.084654 25.363996,39.109827 23.929367,39.110367 L 21.320949,39.111348 L 21.403474,38.838985 z"
     id="path3180" />
  <path
     style="fill:#555753"
     d="M 23.601877,31.276225 C 23.473597,31.173566 23.411249,31.054479 23.385577,30.863081 C 23.353613,30.624777 23.371742,30.571937 23.544858,30.398821 C 23.956287,29.987393 24.583178,30.246022 24.583178,30.827186 C 24.583178,31.364655 24.029166,31.618167 23.601877,31.276225 L 23.601877,31.276225 z"
     id="path3182" />
  <path
     style="fill:#555753"
     d="M 21.342389,32.814953 C 21.245541,32.7004 21.062738,32.390387 20.936157,32.126034 C 20.708468,31.650527 20.706009,31.636494 20.706009,30.812283 L 20.706009,29.979172 L 20.972657,29.434445 C 21.119316,29.134846 21.312118,28.803204 21.401106,28.697463 L 21.562905,28.505206 L 22.01563,28.952088 C 22.264631,29.19787 22.468358,29.424125 22.468358,29.454876 C 22.468358,29.485629 22.413902,29.587336 22.347346,29.680894 C 22.170633,29.929298 22.019622,30.49475 22.020697,30.904021 C 22.021416,31.178415 22.072026,31.364101 22.239703,31.70756 C 22.39567,32.027032 22.441295,32.185029 22.399914,32.262349 C 22.334012,32.385485 21.633435,33.02323 21.564067,33.02323 C 21.538989,33.02323 21.439233,32.929505 21.342387,32.814953 L 21.342389,32.814953 z"
     id="path3184" />
  <path
     style="fill:#555753"
     d="M 19.26285,34.547627 C 18.528438,33.563086 18.126558,32.622879 17.981238,31.549265 C 17.765711,29.956981 18.324002,28.125271 19.393596,26.915418 L 19.665957,26.60734 L 19.855527,26.787248 C 19.959791,26.886197 20.158098,27.101341 20.296209,27.265345 L 20.54732,27.563533 L 20.185428,28.088893 C 19.772995,28.687621 19.42645,29.457761 19.361391,29.920178 C 19.336989,30.093611 19.318351,30.554501 19.319972,30.944374 C 19.322401,31.529064 19.35241,31.744667 19.491275,32.17519 C 19.658094,32.69238 20.011352,33.351208 20.363278,33.801478 C 20.463662,33.929913 20.54222,34.059688 20.537851,34.089862 C 20.533482,34.120036 20.322412,34.339398 20.068807,34.57733 L 19.607708,35.009934 L 19.26285,34.547627 z"
     id="path3186" />
  <path
     style="fill:#555753"
     d="M 17.453527,36.849946 C 16.007019,35.023318 15.434327,33.839917 15.159812,32.110254 C 15.056573,31.459772 15.114992,29.561018 15.255939,28.985847 C 15.637629,27.428263 16.277512,26.169589 17.269567,25.024973 L 17.619835,24.62084 L 18.121532,25.119599 C 18.397467,25.393914 18.623231,25.639162 18.623231,25.664595 C 18.623231,25.690027 18.484536,25.878154 18.31502,26.082653 C 17.422576,27.159276 16.951272,28.146448 16.668887,29.530574 C 16.647314,29.636315 16.613895,30.083311 16.594623,30.523898 C 16.517984,32.275831 16.99113,33.773956 18.072123,35.202136 C 18.32557,35.536982 18.556805,35.849992 18.585981,35.897713 C 18.623184,35.958565 18.488767,36.135625 18.135971,36.490504 C 17.859287,36.768819 17.617818,36.995452 17.599368,36.994137 C 17.580919,36.99282 17.51529,36.927935 17.453529,36.849945 L 17.453527,36.849946 z"
     id="path3188" />
</svg>
